<svg width="278" height="254" viewBox="0 0 278 254" fill="none" xmlns="http://www.w3.org/2000/svg">
<g style="mix-blend-mode:screen">
<path d="M17.1712 250.919C25.017 257.872 261.257 251.755 271.039 245.402C280.137 239.498 280.502 20.171 271.039 8.77466C261.576 -2.62168 16.8751 -1.8228 8.14108 8.77467C-0.592947 19.3846 -2.38074 233.606 17.1712 250.919Z" fill="url(#paint0_linear_347_525)"/>
<path d="M15.3037 250.395C23.1496 257.347 259.39 251.231 269.171 244.877C278.27 238.973 278.634 19.6467 269.171 8.25037C259.709 -3.14598 15.0077 -2.34709 6.27363 8.25038C-2.4604 18.8604 -4.25958 233.069 15.3037 250.395Z" fill="url(#paint1_linear_347_525)"/>
<path d="M17.3422 248.348C25.0514 255.175 253.673 251.768 266.985 242.918C275.879 237.014 279.101 23.3915 266.985 10.2226C253.446 -4.50651 17.0461 -0.200104 8.44874 10.2226C-0.137252 20.6454 -1.89088 231.309 17.3422 248.348Z" fill="url(#paint2_radial_347_525)"/>
<path style="mix-blend-mode:screen" d="M151.359 201.139C151.279 199.716 152.27 198.493 153.568 198.406C154.866 198.318 155.982 199.404 156.062 200.827C156.142 202.25 155.151 203.474 153.853 203.561C152.555 203.648 151.439 202.562 151.359 201.139Z" fill="url(#paint3_radial_347_525)"/>
<path d="M153.056 200.827C153.033 200.428 153.306 200.091 153.67 200.066C154.035 200.041 154.342 200.341 154.365 200.74C154.388 201.139 154.115 201.476 153.75 201.501C153.386 201.526 153.078 201.227 153.056 200.827Z" fill="#FFFFAB"/>
<path style="mix-blend-mode:screen" d="M141.235 197.619C141.156 196.196 142.146 194.973 143.445 194.886C144.743 194.798 145.859 195.884 145.938 197.307C146.018 198.73 145.027 199.954 143.729 200.041C142.431 200.128 141.315 199.042 141.235 197.619Z" fill="url(#paint4_radial_347_525)"/>
<path d="M142.921 197.307C142.898 196.908 143.171 196.571 143.536 196.546C143.9 196.521 144.208 196.821 144.23 197.22C144.253 197.619 143.98 197.956 143.615 197.981C143.251 198.006 142.944 197.707 142.921 197.307Z" fill="#FFFFAB"/>
<path style="mix-blend-mode:screen" d="M170.296 199.692C170.216 198.269 171.207 197.045 172.505 196.958C173.803 196.871 174.919 197.957 174.999 199.379C175.079 200.802 174.088 202.026 172.79 202.113C171.492 202.2 170.376 201.115 170.296 199.692Z" fill="url(#paint5_radial_347_525)"/>
<path d="M171.981 199.379C171.959 198.98 172.232 198.643 172.596 198.618C172.961 198.593 173.268 198.893 173.291 199.292C173.314 199.692 173.04 200.029 172.676 200.054C172.312 200.079 172.004 199.779 171.981 199.379Z" fill="#FFFFAB"/>
<path style="mix-blend-mode:screen" d="M136.054 211.874C135.838 207.88 138.616 204.46 142.249 204.223C145.893 203.986 149.013 207.031 149.229 211.013C149.446 215.007 146.667 218.428 143.035 218.665C139.391 218.902 136.271 215.856 136.054 211.874Z" fill="url(#paint6_radial_347_525)"/>
<path d="M140.78 211.001C140.723 209.89 141.486 208.941 142.5 208.879C143.513 208.816 144.379 209.652 144.436 210.763C144.493 211.874 143.73 212.823 142.716 212.885C141.703 212.948 140.837 212.111 140.78 211.001Z" fill="#FFFFAB"/>
<path style="mix-blend-mode:screen" d="M183.87 63.3348C183.653 59.3404 186.432 55.9203 190.064 55.6831C193.708 55.446 196.828 58.4916 197.045 62.4735C197.261 66.4554 194.483 69.888 190.85 70.1252C187.206 70.3623 184.086 67.3166 183.87 63.3348Z" fill="url(#paint7_radial_347_525)"/>
<path d="M188.607 62.461C188.55 61.3501 189.313 60.4014 190.326 60.339C191.34 60.2766 192.205 61.1129 192.262 62.2239C192.319 63.3348 191.556 64.2834 190.543 64.3458C189.529 64.4083 188.664 63.5719 188.607 62.461Z" fill="#FFFFAB"/>
<path style="mix-blend-mode:screen" d="M180.704 25.988C180.601 24.0782 181.922 22.443 183.665 22.3307C185.407 22.2183 186.898 23.6663 187.001 25.5761C187.103 27.4859 185.783 29.121 184.04 29.2334C182.298 29.3457 180.806 27.8978 180.704 25.988Z" fill="url(#paint8_radial_347_525)"/>
<path d="M182.97 25.5761C182.936 25.0519 183.312 24.59 183.79 24.5651C184.268 24.5276 184.689 24.9395 184.712 25.4638C184.746 25.9881 184.371 26.4499 183.892 26.4749C183.414 26.5123 182.993 26.1004 182.97 25.5761Z" fill="#FFFFAB"/>
<path style="mix-blend-mode:screen" d="M186.454 191.229C186.352 189.319 187.673 187.684 189.415 187.571C191.157 187.459 192.649 188.907 192.751 190.817C192.854 192.726 191.533 194.362 189.791 194.474C188.049 194.586 186.557 193.138 186.454 191.229Z" fill="url(#paint9_radial_347_525)"/>
<path d="M188.709 190.804C188.675 190.28 189.05 189.818 189.529 189.793C190.007 189.756 190.428 190.168 190.451 190.692C190.485 191.216 190.109 191.678 189.631 191.703C189.153 191.728 188.731 191.328 188.709 190.804Z" fill="#FFFFAB"/>
<path style="mix-blend-mode:screen" d="M174.669 91.9942C174.612 91.0455 175.284 90.2217 176.149 90.1718C177.015 90.1094 177.766 90.8458 177.812 91.7945C177.869 92.7431 177.197 93.567 176.331 93.6169C175.466 93.6668 174.714 92.9429 174.669 91.9942Z" fill="url(#paint10_radial_347_525)"/>
<path d="M175.808 91.782C175.796 91.5199 175.978 91.2952 176.218 91.2703C176.457 91.2578 176.662 91.4575 176.684 91.7196C176.696 91.9817 176.514 92.2064 176.275 92.2314C176.035 92.2439 175.83 92.0441 175.808 91.782Z" fill="#FFFFAB"/>
<path style="mix-blend-mode:screen" d="M194.779 221.91C194.722 220.961 195.394 220.138 196.259 220.088C197.125 220.025 197.876 220.762 197.922 221.71C197.979 222.659 197.307 223.483 196.441 223.533C195.576 223.595 194.824 222.859 194.779 221.91Z" fill="url(#paint11_radial_347_525)"/>
<path d="M195.906 221.71C195.894 221.448 196.077 221.224 196.316 221.199C196.555 221.186 196.76 221.386 196.783 221.648C196.805 221.91 196.612 222.135 196.373 222.16C196.134 222.172 195.929 221.973 195.906 221.71Z" fill="#FFFFAB"/>
<path style="mix-blend-mode:screen" d="M167.711 173.354C167.654 172.405 168.326 171.581 169.191 171.531C170.057 171.469 170.808 172.205 170.854 173.154C170.911 174.103 170.239 174.927 169.373 174.977C168.508 175.039 167.756 174.302 167.711 173.354Z" fill="url(#paint12_radial_347_525)"/>
<path d="M168.838 173.142C168.827 172.88 169.009 172.655 169.248 172.63C169.487 172.605 169.692 172.817 169.715 173.079C169.737 173.341 169.544 173.566 169.305 173.591C169.066 173.604 168.861 173.404 168.838 173.142Z" fill="#FFFFAB"/>
<path style="mix-blend-mode:screen" d="M192.456 197.32C192.422 196.608 192.911 195.997 193.56 195.959C194.209 195.922 194.767 196.459 194.802 197.17C194.836 197.882 194.346 198.493 193.697 198.531C193.048 198.568 192.49 198.031 192.456 197.32Z" fill="url(#paint13_radial_347_525)"/>
<path d="M193.298 197.17C193.298 196.971 193.424 196.808 193.606 196.796C193.788 196.783 193.936 196.933 193.947 197.133C193.947 197.333 193.822 197.495 193.64 197.507C193.458 197.52 193.31 197.37 193.298 197.17Z" fill="#FFFFAB"/>
<path style="mix-blend-mode:screen" d="M195.61 107.784C195.53 106.299 196.566 105.013 197.921 104.926C199.276 104.838 200.449 105.974 200.529 107.46C200.609 108.945 199.573 110.231 198.217 110.318C196.862 110.406 195.689 109.27 195.61 107.784Z" fill="url(#paint14_radial_347_525)"/>
<path d="M197.375 107.46C197.352 107.048 197.637 106.698 198.012 106.673C198.388 106.648 198.707 106.96 198.73 107.372C198.753 107.784 198.468 108.134 198.092 108.159C197.716 108.184 197.398 107.871 197.375 107.46Z" fill="#FFFFAB"/>
<path style="mix-blend-mode:screen" d="M197.375 164.679C197.295 163.193 198.331 161.908 199.687 161.82C201.042 161.733 202.214 162.869 202.294 164.354C202.374 165.84 201.338 167.125 199.983 167.213C198.628 167.3 197.455 166.164 197.375 164.679Z" fill="url(#paint15_radial_347_525)"/>
<path d="M199.151 164.354C199.128 163.942 199.413 163.593 199.789 163.568C200.165 163.543 200.483 163.855 200.506 164.267C200.529 164.679 200.244 165.028 199.869 165.053C199.493 165.078 199.174 164.766 199.151 164.354Z" fill="#FFFFAB"/>
<path style="mix-blend-mode:screen" opacity="0.5" d="M18.5603 245.002C18.5603 245.002 36.1991 258.908 40.8793 218.278C45.5595 177.648 19.1866 135.745 13.789 100.27C8.39143 64.7954 7.11605 34.7629 7.11605 34.7629C7.11605 34.7629 -5.58074 201.027 18.5603 245.015L18.5603 245.002Z" fill="url(#paint16_linear_347_525)"/>
<path d="M24.4706 245.951C24.4706 245.951 20.8153 247.037 17.7293 243.417C14.6434 239.797 8.57397 220.138 10.0999 218.378C11.6258 216.618 25.4613 237.912 24.4706 245.951Z" fill="white"/>
<path d="M28.0235 244.441C27.0556 246.163 31.4625 249.259 33.1933 245.602C34.9242 241.944 29.2078 242.319 28.0235 244.441Z" fill="white"/>
<path d="M270.538 15.0409C269.832 16.9132 261.12 7.50155 261.758 6.60282C262.396 5.7041 267.509 6.91488 268.659 8.33786C269.809 9.76085 271.004 13.7801 270.526 15.0409L270.538 15.0409Z" fill="white"/>
</g>
<path d="M30.804 25.144C30.34 25.144 29.928 25.096 29.568 25C29.208 24.896 28.896 24.756 28.632 24.58C28.368 24.396 28.152 24.196 27.984 23.98C27.816 23.756 27.692 23.52 27.612 23.272L28.584 22.936C28.704 23.288 28.944 23.596 29.304 23.86C29.672 24.116 30.12 24.244 30.648 24.244C31.296 24.244 31.804 24.116 32.172 23.86C32.54 23.604 32.724 23.264 32.724 22.84C32.724 22.448 32.56 22.132 32.232 21.892C31.904 21.644 31.472 21.452 30.936 21.316L30.012 21.076C29.636 20.98 29.288 20.84 28.968 20.656C28.656 20.464 28.404 20.224 28.212 19.936C28.028 19.64 27.936 19.288 27.936 18.88C27.936 18.12 28.18 17.528 28.668 17.104C29.164 16.672 29.876 16.456 30.804 16.456C31.356 16.456 31.832 16.548 32.232 16.732C32.632 16.908 32.956 17.136 33.204 17.416C33.46 17.688 33.64 17.984 33.744 18.304L32.784 18.64C32.632 18.24 32.376 17.928 32.016 17.704C31.656 17.472 31.22 17.356 30.708 17.356C30.172 17.356 29.744 17.488 29.424 17.752C29.112 18.008 28.956 18.36 28.956 18.808C28.956 19.192 29.08 19.488 29.328 19.696C29.576 19.896 29.9 20.044 30.3 20.14L31.224 20.368C32.04 20.56 32.664 20.88 33.096 21.328C33.536 21.768 33.756 22.244 33.756 22.756C33.756 23.196 33.644 23.6 33.42 23.968C33.196 24.328 32.864 24.616 32.424 24.832C31.992 25.04 31.452 25.144 30.804 25.144ZM39.3271 25L39.2671 23.896V19H40.2271V25H39.3271ZM35.0551 22.072V19H36.0151V22.072H35.0551ZM36.0151 22.072C36.0151 22.664 36.0831 23.116 36.2191 23.428C36.3551 23.74 36.5431 23.956 36.7831 24.076C37.0311 24.188 37.3071 24.244 37.6111 24.244C38.1311 24.244 38.5351 24.056 38.8231 23.68C39.1191 23.304 39.2671 22.78 39.2671 22.108H39.7351C39.7351 22.74 39.6431 23.284 39.4591 23.74C39.2751 24.196 39.0071 24.544 38.6551 24.784C38.3111 25.024 37.8871 25.144 37.3831 25.144C36.9191 25.144 36.5111 25.052 36.1591 24.868C35.8071 24.676 35.5351 24.376 35.3431 23.968C35.1511 23.552 35.0551 23.016 35.0551 22.36V22.072H36.0151ZM41.9025 25V19H42.8025L42.8505 19.84C43.0345 19.52 43.2705 19.276 43.5585 19.108C43.8465 18.94 44.1825 18.856 44.5665 18.856C45.0465 18.856 45.4545 18.968 45.7905 19.192C46.1345 19.416 46.3825 19.756 46.5345 20.212C46.7025 19.772 46.9465 19.436 47.2665 19.204C47.5945 18.972 47.9825 18.856 48.4305 18.856C49.1025 18.856 49.6305 19.08 50.0145 19.528C50.4065 19.976 50.5985 20.656 50.5905 21.568V25H49.6305V21.928C49.6305 21.336 49.5665 20.884 49.4385 20.572C49.3185 20.26 49.1545 20.048 48.9465 19.936C48.7385 19.816 48.4985 19.756 48.2265 19.756C47.7545 19.756 47.3865 19.944 47.1225 20.32C46.8585 20.688 46.7265 21.212 46.7265 21.892V25H45.7665V21.928C45.7665 21.336 45.7025 20.884 45.5745 20.572C45.4545 20.26 45.2865 20.048 45.0705 19.936C44.8625 19.816 44.6225 19.756 44.3505 19.756C43.8865 19.756 43.5225 19.944 43.2585 20.32C42.9945 20.688 42.8625 21.212 42.8625 21.892V25H41.9025ZM52.1095 25V19H53.0095L53.0575 19.84C53.2415 19.52 53.4775 19.276 53.7655 19.108C54.0535 18.94 54.3895 18.856 54.7735 18.856C55.2535 18.856 55.6615 18.968 55.9975 19.192C56.3415 19.416 56.5895 19.756 56.7415 20.212C56.9095 19.772 57.1535 19.436 57.4735 19.204C57.8015 18.972 58.1895 18.856 58.6375 18.856C59.3095 18.856 59.8375 19.08 60.2215 19.528C60.6135 19.976 60.8055 20.656 60.7975 21.568V25H59.8375V21.928C59.8375 21.336 59.7735 20.884 59.6455 20.572C59.5255 20.26 59.3615 20.048 59.1535 19.936C58.9455 19.816 58.7055 19.756 58.4335 19.756C57.9615 19.756 57.5935 19.944 57.3295 20.32C57.0655 20.688 56.9335 21.212 56.9335 21.892V25H55.9735V21.928C55.9735 21.336 55.9095 20.884 55.7815 20.572C55.6615 20.26 55.4935 20.048 55.2775 19.936C55.0695 19.816 54.8295 19.756 54.5575 19.756C54.0935 19.756 53.7295 19.944 53.4655 20.32C53.2015 20.688 53.0695 21.212 53.0695 21.892V25H52.1095ZM66.0126 25L65.9646 24.016V21.832C65.9646 21.36 65.9126 20.972 65.8086 20.668C65.7046 20.356 65.5406 20.12 65.3166 19.96C65.0926 19.8 64.8006 19.72 64.4406 19.72C64.1126 19.72 63.8286 19.788 63.5886 19.924C63.3566 20.052 63.1646 20.26 63.0126 20.548L62.1486 20.212C62.3006 19.932 62.4846 19.692 62.7006 19.492C62.9166 19.284 63.1686 19.128 63.4566 19.024C63.7446 18.912 64.0726 18.856 64.4406 18.856C65.0006 18.856 65.4606 18.968 65.8206 19.192C66.1886 19.408 66.4646 19.732 66.6486 20.164C66.8326 20.588 66.9206 21.116 66.9126 21.748L66.9006 25H66.0126ZM64.2126 25.144C63.5086 25.144 62.9566 24.984 62.5566 24.664C62.1646 24.336 61.9686 23.884 61.9686 23.308C61.9686 22.7 62.1686 22.236 62.5686 21.916C62.9766 21.588 63.5446 21.424 64.2726 21.424H65.9886V22.228H64.4886C63.9286 22.228 63.5286 22.32 63.2886 22.504C63.0566 22.688 62.9406 22.952 62.9406 23.296C62.9406 23.608 63.0566 23.856 63.2886 24.04C63.5206 24.216 63.8446 24.304 64.2606 24.304C64.6046 24.304 64.9046 24.232 65.1606 24.088C65.4166 23.936 65.6126 23.724 65.7486 23.452C65.8926 23.172 65.9646 22.844 65.9646 22.468H66.3726C66.3726 23.284 66.1886 23.936 65.8206 24.424C65.4526 24.904 64.9166 25.144 64.2126 25.144ZM68.9618 21.748C68.9618 21.1 69.0858 20.576 69.3338 20.176C69.5818 19.768 69.8978 19.468 70.2818 19.276C70.6738 19.076 71.0858 18.976 71.5178 18.976V19.876C71.1658 19.876 70.8258 19.936 70.4978 20.056C70.1778 20.168 69.9138 20.356 69.7058 20.62C69.4978 20.884 69.3938 21.244 69.3938 21.7L68.9618 21.748ZM68.4338 25V19H69.3938V25H68.4338ZM73.0284 27.544C72.8764 27.544 72.7004 27.512 72.5004 27.448C72.3004 27.392 72.0884 27.316 71.8644 27.22L72.2244 26.416C72.4084 26.496 72.5684 26.556 72.7044 26.596C72.8484 26.636 72.9604 26.656 73.0404 26.656C73.2564 26.656 73.4324 26.596 73.5684 26.476C73.7124 26.364 73.8324 26.2 73.9284 25.984L74.6124 24.352L76.8324 19H77.8644L74.9844 25.84C74.8324 26.192 74.6724 26.496 74.5044 26.752C74.3444 27.008 74.1484 27.204 73.9164 27.34C73.6844 27.476 73.3884 27.544 73.0284 27.544ZM74.3484 25L71.7564 19H72.7764L75.0084 24.34L75.2964 25H74.3484Z" fill="white"/>
<path d="M28.116 90V81.6H30.672C31.464 81.6 32.16 81.78 32.76 82.14C33.368 82.492 33.844 82.984 34.188 83.616C34.532 84.248 34.704 84.976 34.704 85.8C34.704 86.616 34.532 87.34 34.188 87.972C33.844 88.604 33.368 89.1 32.76 89.46C32.16 89.82 31.464 90 30.672 90H28.116ZM29.136 89.064H30.672C31.096 89.064 31.488 88.984 31.848 88.824C32.208 88.656 32.524 88.42 32.796 88.116C33.076 87.812 33.292 87.464 33.444 87.072C33.604 86.672 33.684 86.248 33.684 85.8C33.684 85.352 33.604 84.932 33.444 84.54C33.292 84.14 33.076 83.788 32.796 83.484C32.524 83.18 32.208 82.948 31.848 82.788C31.488 82.62 31.096 82.536 30.672 82.536H29.136V89.064ZM38.7297 90.144C38.1457 90.144 37.6297 90.012 37.1817 89.748C36.7337 89.476 36.3817 89.104 36.1257 88.632C35.8777 88.16 35.7537 87.616 35.7537 87C35.7537 86.384 35.8777 85.84 36.1257 85.368C36.3817 84.896 36.7297 84.528 37.1697 84.264C37.6177 83.992 38.1297 83.856 38.7057 83.856C39.2657 83.856 39.7497 83.996 40.1577 84.276C40.5657 84.548 40.8817 84.932 41.1057 85.428C41.3297 85.924 41.4417 86.508 41.4417 87.18H36.4857L36.7257 86.976C36.7257 87.456 36.8097 87.868 36.9777 88.212C37.1537 88.556 37.3977 88.82 37.7097 89.004C38.0217 89.18 38.3777 89.268 38.7777 89.268C39.2017 89.268 39.5577 89.168 39.8457 88.968C40.1417 88.768 40.3697 88.504 40.5297 88.176L41.3577 88.596C41.2057 88.908 41.0017 89.18 40.7457 89.412C40.4977 89.644 40.2017 89.824 39.8577 89.952C39.5217 90.08 39.1457 90.144 38.7297 90.144ZM36.7857 86.568L36.5337 86.376H40.6737L40.4217 86.58C40.4217 86.196 40.3457 85.864 40.1937 85.584C40.0417 85.304 39.8377 85.088 39.5817 84.936C39.3257 84.784 39.0297 84.708 38.6937 84.708C38.3657 84.708 38.0537 84.784 37.7577 84.936C37.4697 85.088 37.2337 85.304 37.0497 85.584C36.8737 85.856 36.7857 86.184 36.7857 86.568ZM44.7525 90.144C44.3125 90.144 43.9285 90.08 43.6005 89.952C43.2725 89.816 42.9965 89.64 42.7725 89.424C42.5565 89.208 42.4005 88.972 42.3045 88.716L43.1445 88.368C43.2805 88.64 43.4845 88.86 43.7565 89.028C44.0285 89.196 44.3285 89.28 44.6565 89.28C45.0325 89.28 45.3485 89.208 45.6045 89.064C45.8605 88.912 45.9885 88.7 45.9885 88.428C45.9885 88.18 45.8925 87.98 45.7005 87.828C45.5165 87.676 45.2405 87.552 44.8725 87.456L44.2965 87.3C43.7525 87.156 43.3285 86.94 43.0245 86.652C42.7205 86.356 42.5685 86.024 42.5685 85.656C42.5685 85.088 42.7525 84.648 43.1205 84.336C43.4965 84.016 44.0525 83.856 44.7885 83.856C45.1405 83.856 45.4605 83.908 45.7485 84.012C46.0365 84.116 46.2845 84.264 46.4925 84.456C46.7005 84.64 46.8525 84.86 46.9485 85.116L46.1085 85.488C46.0045 85.216 45.8325 85.02 45.5925 84.9C45.3525 84.78 45.0605 84.72 44.7165 84.72C44.3485 84.72 44.0605 84.8 43.8525 84.96C43.6445 85.112 43.5405 85.328 43.5405 85.608C43.5405 85.768 43.6245 85.92 43.7925 86.064C43.9685 86.2 44.2245 86.312 44.5605 86.4L45.1605 86.556C45.5525 86.652 45.8805 86.796 46.1445 86.988C46.4085 87.172 46.6085 87.384 46.7445 87.624C46.8805 87.864 46.9485 88.12 46.9485 88.392C46.9485 88.752 46.8525 89.064 46.6605 89.328C46.4685 89.592 46.2085 89.796 45.8805 89.94C45.5525 90.076 45.1765 90.144 44.7525 90.144ZM50.9183 90.144C50.3263 90.144 49.8023 90.012 49.3463 89.748C48.8903 89.476 48.5343 89.104 48.2783 88.632C48.0223 88.16 47.8943 87.616 47.8943 87C47.8943 86.384 48.0183 85.84 48.2663 85.368C48.5223 84.896 48.8783 84.528 49.3343 84.264C49.7903 83.992 50.3103 83.856 50.8943 83.856C51.4703 83.856 51.9863 83.988 52.4423 84.252C52.8983 84.516 53.2463 84.888 53.4863 85.368L52.6103 85.764C52.4503 85.444 52.2183 85.196 51.9143 85.02C51.6103 84.836 51.2623 84.744 50.8703 84.744C50.4783 84.744 50.1303 84.84 49.8263 85.032C49.5303 85.224 49.2943 85.492 49.1183 85.836C48.9503 86.172 48.8663 86.56 48.8663 87C48.8663 87.44 48.9503 87.832 49.1183 88.176C49.2943 88.512 49.5343 88.776 49.8383 88.968C50.1503 89.16 50.5023 89.256 50.8943 89.256C51.2863 89.256 51.6343 89.156 51.9383 88.956C52.2503 88.756 52.4863 88.476 52.6463 88.116L53.5223 88.512C53.2823 89.024 52.9343 89.424 52.4783 89.712C52.0223 90 51.5023 90.144 50.9183 90.144ZM55.2625 86.748C55.2625 86.1 55.3865 85.576 55.6345 85.176C55.8825 84.768 56.1985 84.468 56.5825 84.276C56.9745 84.076 57.3865 83.976 57.8185 83.976V84.876C57.4665 84.876 57.1265 84.936 56.7985 85.056C56.4785 85.168 56.2145 85.356 56.0065 85.62C55.7985 85.884 55.6945 86.244 55.6945 86.7L55.2625 86.748ZM54.7345 90V84H55.6945V90H54.7345ZM58.8492 90V84H59.8092V90H58.8492ZM59.3412 82.608C59.1812 82.608 59.0412 82.548 58.9212 82.428C58.8012 82.308 58.7412 82.168 58.7412 82.008C58.7412 81.84 58.8012 81.7 58.9212 81.588C59.0412 81.468 59.1812 81.408 59.3412 81.408C59.5092 81.408 59.6492 81.468 59.7612 81.588C59.8812 81.7 59.9412 81.84 59.9412 82.008C59.9412 82.168 59.8812 82.308 59.7612 82.428C59.6492 82.548 59.5092 82.608 59.3412 82.608ZM61.6383 92.4V84H62.5383L62.5983 85.104V92.4H61.6383ZM64.6263 90.144C64.1223 90.144 63.6783 90.012 63.2943 89.748C62.9183 89.484 62.6263 89.116 62.4183 88.644C62.2103 88.164 62.1063 87.616 62.1063 87C62.1063 86.376 62.2103 85.828 62.4183 85.356C62.6263 84.884 62.9183 84.516 63.2943 84.252C63.6783 83.988 64.1223 83.856 64.6263 83.856C65.1623 83.856 65.6343 83.988 66.0423 84.252C66.4503 84.516 66.7663 84.884 66.9903 85.356C67.2223 85.828 67.3383 86.376 67.3383 87C67.3383 87.616 67.2223 88.164 66.9903 88.644C66.7663 89.116 66.4503 89.484 66.0423 89.748C65.6343 90.012 65.1623 90.144 64.6263 90.144ZM64.4103 89.268C64.7863 89.268 65.1183 89.172 65.4063 88.98C65.7023 88.788 65.9343 88.52 66.1023 88.176C66.2783 87.832 66.3663 87.44 66.3663 87C66.3663 86.56 66.2823 86.168 66.1143 85.824C65.9543 85.48 65.7263 85.212 65.4303 85.02C65.1343 84.828 64.7983 84.732 64.4223 84.732C64.0703 84.732 63.7543 84.828 63.4743 85.02C63.2023 85.212 62.9863 85.48 62.8263 85.824C62.6743 86.168 62.5983 86.56 62.5983 87C62.5983 87.44 62.6743 87.832 62.8263 88.176C62.9863 88.52 63.2023 88.788 63.4743 88.98C63.7463 89.172 64.0583 89.268 64.4103 89.268ZM70.9241 90.144C70.3401 90.144 69.8881 89.992 69.5681 89.688C69.2481 89.384 69.0881 88.956 69.0881 88.404V82.128H70.0481V88.308C70.0481 88.612 70.1281 88.848 70.2881 89.016C70.4561 89.176 70.6881 89.256 70.9841 89.256C71.0801 89.256 71.1721 89.244 71.2601 89.22C71.3561 89.188 71.4801 89.116 71.6321 89.004L72.0041 89.784C71.7961 89.92 71.6081 90.012 71.4401 90.06C71.2721 90.116 71.1001 90.144 70.9241 90.144ZM68.0441 84.852V84H71.8481V84.852H68.0441ZM73.2633 90V84H74.2233V90H73.2633ZM73.7553 82.608C73.5953 82.608 73.4553 82.548 73.3353 82.428C73.2153 82.308 73.1553 82.168 73.1553 82.008C73.1553 81.84 73.2153 81.7 73.3353 81.588C73.4553 81.468 73.5953 81.408 73.7553 81.408C73.9233 81.408 74.0633 81.468 74.1753 81.588C74.2953 81.7 74.3553 81.84 74.3553 82.008C74.3553 82.168 74.2953 82.308 74.1753 82.428C74.0633 82.548 73.9233 82.608 73.7553 82.608ZM78.6443 90.144C78.0603 90.144 77.5403 90.012 77.0843 89.748C76.6363 89.476 76.2843 89.104 76.0283 88.632C75.7723 88.16 75.6443 87.616 75.6443 87C75.6443 86.384 75.7683 85.84 76.0163 85.368C76.2723 84.896 76.6243 84.528 77.0723 84.264C77.5283 83.992 78.0443 83.856 78.6203 83.856C79.2123 83.856 79.7323 83.992 80.1803 84.264C80.6363 84.528 80.9883 84.896 81.2363 85.368C81.4923 85.84 81.6203 86.384 81.6203 87C81.6203 87.616 81.4923 88.16 81.2363 88.632C80.9883 89.104 80.6403 89.476 80.1923 89.748C79.7443 90.012 79.2283 90.144 78.6443 90.144ZM78.6443 89.256C79.0443 89.256 79.3923 89.16 79.6883 88.968C79.9843 88.776 80.2163 88.512 80.3843 88.176C80.5603 87.84 80.6483 87.448 80.6483 87C80.6483 86.552 80.5603 86.16 80.3843 85.824C80.2163 85.488 79.9803 85.224 79.6763 85.032C79.3723 84.84 79.0203 84.744 78.6203 84.744C78.2283 84.744 77.8803 84.84 77.5763 85.032C77.2803 85.224 77.0443 85.488 76.8683 85.824C76.7003 86.16 76.6163 86.552 76.6163 87C76.6163 87.44 76.7003 87.832 76.8683 88.176C77.0443 88.512 77.2843 88.776 77.5883 88.968C77.9003 89.16 78.2523 89.256 78.6443 89.256ZM82.9533 90V84H83.8533L83.9133 85.104V90H82.9533ZM87.1653 90V86.928H88.1253V90H87.1653ZM87.1653 86.928C87.1653 86.336 87.0973 85.884 86.9613 85.572C86.8253 85.26 86.6373 85.048 86.3973 84.936C86.1573 84.816 85.8853 84.756 85.5813 84.756C85.0533 84.756 84.6413 84.944 84.3453 85.32C84.0573 85.688 83.9133 86.212 83.9133 86.892H83.4453C83.4453 86.26 83.5373 85.716 83.7213 85.26C83.9053 84.804 84.1733 84.456 84.5253 84.216C84.8773 83.976 85.3013 83.856 85.7973 83.856C86.2693 83.856 86.6773 83.952 87.0213 84.144C87.3733 84.328 87.6453 84.624 87.8373 85.032C88.0373 85.44 88.1333 85.976 88.1253 86.64V86.928H87.1653Z" fill="white"/>
<path d="M109.936 226L106.564 217.6H107.584L111.004 226H109.936ZM103.108 226L106.528 217.6H107.56L104.188 226H103.108ZM104.728 223.612V222.7H109.396V223.612H104.728ZM116.319 226L116.271 224.884V217.6H117.231V226H116.319ZM114.243 226.144C113.707 226.144 113.235 226.012 112.827 225.748C112.419 225.484 112.099 225.116 111.867 224.644C111.643 224.164 111.531 223.616 111.531 223C111.531 222.376 111.643 221.828 111.867 221.356C112.099 220.884 112.419 220.516 112.827 220.252C113.235 219.988 113.707 219.856 114.243 219.856C114.747 219.856 115.187 219.988 115.563 220.252C115.947 220.516 116.243 220.884 116.451 221.356C116.659 221.828 116.763 222.376 116.763 223C116.763 223.616 116.659 224.164 116.451 224.644C116.243 225.116 115.947 225.484 115.563 225.748C115.187 226.012 114.747 226.144 114.243 226.144ZM114.459 225.268C114.811 225.268 115.123 225.172 115.395 224.98C115.667 224.788 115.879 224.52 116.031 224.176C116.191 223.832 116.271 223.44 116.271 223C116.271 222.56 116.191 222.168 116.031 221.824C115.879 221.48 115.667 221.212 115.395 221.02C115.123 220.828 114.807 220.732 114.447 220.732C114.071 220.732 113.735 220.828 113.439 221.02C113.151 221.212 112.923 221.48 112.755 221.824C112.587 222.168 112.503 222.56 112.503 223C112.503 223.44 112.587 223.832 112.755 224.176C112.923 224.52 113.155 224.788 113.451 224.98C113.747 225.172 114.083 225.268 114.459 225.268ZM123.35 226L123.302 224.884V217.6H124.262V226H123.35ZM121.274 226.144C120.738 226.144 120.266 226.012 119.858 225.748C119.45 225.484 119.13 225.116 118.898 224.644C118.674 224.164 118.562 223.616 118.562 223C118.562 222.376 118.674 221.828 118.898 221.356C119.13 220.884 119.45 220.516 119.858 220.252C120.266 219.988 120.738 219.856 121.274 219.856C121.778 219.856 122.218 219.988 122.594 220.252C122.978 220.516 123.274 220.884 123.482 221.356C123.69 221.828 123.794 222.376 123.794 223C123.794 223.616 123.69 224.164 123.482 224.644C123.274 225.116 122.978 225.484 122.594 225.748C122.218 226.012 121.778 226.144 121.274 226.144ZM121.49 225.268C121.842 225.268 122.154 225.172 122.426 224.98C122.698 224.788 122.91 224.52 123.062 224.176C123.222 223.832 123.302 223.44 123.302 223C123.302 222.56 123.222 222.168 123.062 221.824C122.91 221.48 122.698 221.212 122.426 221.02C122.154 220.828 121.838 220.732 121.478 220.732C121.102 220.732 120.766 220.828 120.47 221.02C120.182 221.212 119.954 221.48 119.786 221.824C119.618 222.168 119.534 222.56 119.534 223C119.534 223.44 119.618 223.832 119.786 224.176C119.954 224.52 120.186 224.788 120.482 224.98C120.778 225.172 121.114 225.268 121.49 225.268ZM131.006 226.144C130.566 226.144 130.182 226.08 129.854 225.952C129.526 225.816 129.25 225.64 129.026 225.424C128.81 225.208 128.654 224.972 128.558 224.716L129.398 224.368C129.534 224.64 129.738 224.86 130.01 225.028C130.282 225.196 130.582 225.28 130.91 225.28C131.286 225.28 131.602 225.208 131.858 225.064C132.114 224.912 132.242 224.7 132.242 224.428C132.242 224.18 132.146 223.98 131.954 223.828C131.77 223.676 131.494 223.552 131.126 223.456L130.55 223.3C130.006 223.156 129.582 222.94 129.278 222.652C128.974 222.356 128.822 222.024 128.822 221.656C128.822 221.088 129.006 220.648 129.374 220.336C129.75 220.016 130.306 219.856 131.042 219.856C131.394 219.856 131.714 219.908 132.002 220.012C132.29 220.116 132.538 220.264 132.746 220.456C132.954 220.64 133.106 220.86 133.202 221.116L132.362 221.488C132.258 221.216 132.086 221.02 131.846 220.9C131.606 220.78 131.314 220.72 130.97 220.72C130.602 220.72 130.314 220.8 130.106 220.96C129.898 221.112 129.794 221.328 129.794 221.608C129.794 221.768 129.878 221.92 130.046 222.064C130.222 222.2 130.478 222.312 130.814 222.4L131.414 222.556C131.806 222.652 132.134 222.796 132.398 222.988C132.662 223.172 132.862 223.384 132.998 223.624C133.134 223.864 133.202 224.12 133.202 224.392C133.202 224.752 133.106 225.064 132.914 225.328C132.722 225.592 132.462 225.796 132.134 225.94C131.806 226.076 131.43 226.144 131.006 226.144ZM137.172 226.144C136.58 226.144 136.056 226.012 135.6 225.748C135.144 225.476 134.788 225.104 134.532 224.632C134.276 224.16 134.148 223.616 134.148 223C134.148 222.384 134.272 221.84 134.52 221.368C134.776 220.896 135.132 220.528 135.588 220.264C136.044 219.992 136.564 219.856 137.148 219.856C137.724 219.856 138.24 219.988 138.696 220.252C139.152 220.516 139.5 220.888 139.74 221.368L138.864 221.764C138.704 221.444 138.472 221.196 138.168 221.02C137.864 220.836 137.516 220.744 137.124 220.744C136.732 220.744 136.384 220.84 136.08 221.032C135.784 221.224 135.548 221.492 135.372 221.836C135.204 222.172 135.12 222.56 135.12 223C135.12 223.44 135.204 223.832 135.372 224.176C135.548 224.512 135.788 224.776 136.092 224.968C136.404 225.16 136.756 225.256 137.148 225.256C137.54 225.256 137.888 225.156 138.192 224.956C138.504 224.756 138.74 224.476 138.9 224.116L139.776 224.512C139.536 225.024 139.188 225.424 138.732 225.712C138.276 226 137.756 226.144 137.172 226.144ZM141.516 222.748C141.516 222.1 141.64 221.576 141.888 221.176C142.136 220.768 142.452 220.468 142.836 220.276C143.228 220.076 143.64 219.976 144.072 219.976V220.876C143.72 220.876 143.38 220.936 143.052 221.056C142.732 221.168 142.468 221.356 142.26 221.62C142.052 221.884 141.948 222.244 141.948 222.7L141.516 222.748ZM140.988 226V220H141.948V226H140.988ZM147.671 226.144C147.087 226.144 146.571 226.012 146.123 225.748C145.675 225.476 145.323 225.104 145.067 224.632C144.819 224.16 144.695 223.616 144.695 223C144.695 222.384 144.819 221.84 145.067 221.368C145.323 220.896 145.671 220.528 146.111 220.264C146.559 219.992 147.071 219.856 147.647 219.856C148.207 219.856 148.691 219.996 149.099 220.276C149.507 220.548 149.823 220.932 150.047 221.428C150.271 221.924 150.383 222.508 150.383 223.18H145.427L145.667 222.976C145.667 223.456 145.751 223.868 145.919 224.212C146.095 224.556 146.339 224.82 146.651 225.004C146.963 225.18 147.319 225.268 147.719 225.268C148.143 225.268 148.499 225.168 148.787 224.968C149.083 224.768 149.311 224.504 149.471 224.176L150.299 224.596C150.147 224.908 149.943 225.18 149.687 225.412C149.439 225.644 149.143 225.824 148.799 225.952C148.463 226.08 148.087 226.144 147.671 226.144ZM145.727 222.568L145.475 222.376H149.615L149.363 222.58C149.363 222.196 149.287 221.864 149.135 221.584C148.983 221.304 148.779 221.088 148.523 220.936C148.267 220.784 147.971 220.708 147.635 220.708C147.307 220.708 146.995 220.784 146.699 220.936C146.411 221.088 146.175 221.304 145.991 221.584C145.815 221.856 145.727 222.184 145.727 222.568ZM154.222 226.144C153.638 226.144 153.122 226.012 152.674 225.748C152.226 225.476 151.874 225.104 151.618 224.632C151.37 224.16 151.246 223.616 151.246 223C151.246 222.384 151.37 221.84 151.618 221.368C151.874 220.896 152.222 220.528 152.662 220.264C153.11 219.992 153.622 219.856 154.198 219.856C154.758 219.856 155.242 219.996 155.65 220.276C156.058 220.548 156.374 220.932 156.598 221.428C156.822 221.924 156.934 222.508 156.934 223.18H151.978L152.218 222.976C152.218 223.456 152.302 223.868 152.47 224.212C152.646 224.556 152.89 224.82 153.202 225.004C153.514 225.18 153.87 225.268 154.27 225.268C154.694 225.268 155.05 225.168 155.338 224.968C155.634 224.768 155.862 224.504 156.022 224.176L156.85 224.596C156.698 224.908 156.494 225.18 156.238 225.412C155.99 225.644 155.694 225.824 155.35 225.952C155.014 226.08 154.638 226.144 154.222 226.144ZM152.278 222.568L152.026 222.376H156.166L155.914 222.58C155.914 222.196 155.838 221.864 155.686 221.584C155.534 221.304 155.33 221.088 155.074 220.936C154.818 220.784 154.522 220.708 154.186 220.708C153.858 220.708 153.546 220.784 153.25 220.936C152.962 221.088 152.726 221.304 152.542 221.584C152.366 221.856 152.278 222.184 152.278 222.568ZM158.145 226V220H159.045L159.105 221.104V226H158.145ZM162.357 226V222.928H163.317V226H162.357ZM162.357 222.928C162.357 222.336 162.289 221.884 162.153 221.572C162.017 221.26 161.829 221.048 161.589 220.936C161.349 220.816 161.077 220.756 160.773 220.756C160.245 220.756 159.833 220.944 159.537 221.32C159.249 221.688 159.105 222.212 159.105 222.892H158.637C158.637 222.26 158.729 221.716 158.913 221.26C159.097 220.804 159.365 220.456 159.717 220.216C160.069 219.976 160.493 219.856 160.989 219.856C161.461 219.856 161.869 219.952 162.213 220.144C162.565 220.328 162.837 220.624 163.029 221.032C163.229 221.44 163.325 221.976 163.317 222.64V222.928H162.357ZM166.936 226.144C166.496 226.144 166.112 226.08 165.784 225.952C165.456 225.816 165.18 225.64 164.956 225.424C164.74 225.208 164.584 224.972 164.488 224.716L165.328 224.368C165.464 224.64 165.668 224.86 165.94 225.028C166.212 225.196 166.512 225.28 166.84 225.28C167.216 225.28 167.532 225.208 167.788 225.064C168.044 224.912 168.172 224.7 168.172 224.428C168.172 224.18 168.076 223.98 167.884 223.828C167.7 223.676 167.424 223.552 167.056 223.456L166.48 223.3C165.936 223.156 165.512 222.94 165.208 222.652C164.904 222.356 164.752 222.024 164.752 221.656C164.752 221.088 164.936 220.648 165.304 220.336C165.68 220.016 166.236 219.856 166.972 219.856C167.324 219.856 167.644 219.908 167.932 220.012C168.22 220.116 168.468 220.264 168.676 220.456C168.884 220.64 169.036 220.86 169.132 221.116L168.292 221.488C168.188 221.216 168.016 221.02 167.776 220.9C167.536 220.78 167.244 220.72 166.9 220.72C166.532 220.72 166.244 220.8 166.036 220.96C165.828 221.112 165.724 221.328 165.724 221.608C165.724 221.768 165.808 221.92 165.976 222.064C166.152 222.2 166.408 222.312 166.744 222.4L167.344 222.556C167.736 222.652 168.064 222.796 168.328 222.988C168.592 223.172 168.792 223.384 168.928 223.624C169.064 223.864 169.132 224.12 169.132 224.392C169.132 224.752 169.036 225.064 168.844 225.328C168.652 225.592 168.392 225.796 168.064 225.94C167.736 226.076 167.36 226.144 166.936 226.144ZM170.426 226V217.6H171.386V226H170.426ZM174.65 226V222.928H175.61V226H174.65ZM174.65 222.928C174.65 222.336 174.578 221.884 174.434 221.572C174.298 221.26 174.11 221.048 173.87 220.936C173.63 220.816 173.358 220.756 173.054 220.756C172.526 220.756 172.114 220.944 171.818 221.32C171.53 221.688 171.386 222.212 171.386 222.892H170.918C170.918 222.26 171.01 221.716 171.194 221.26C171.386 220.804 171.658 220.456 172.01 220.216C172.362 219.976 172.786 219.856 173.282 219.856C173.746 219.856 174.154 219.952 174.506 220.144C174.858 220.328 175.13 220.624 175.322 221.032C175.522 221.44 175.618 221.976 175.61 222.64V222.928H174.65ZM179.769 226.144C179.185 226.144 178.665 226.012 178.209 225.748C177.761 225.476 177.409 225.104 177.153 224.632C176.897 224.16 176.769 223.616 176.769 223C176.769 222.384 176.893 221.84 177.141 221.368C177.397 220.896 177.749 220.528 178.197 220.264C178.653 219.992 179.169 219.856 179.745 219.856C180.337 219.856 180.857 219.992 181.305 220.264C181.761 220.528 182.113 220.896 182.361 221.368C182.617 221.84 182.745 222.384 182.745 223C182.745 223.616 182.617 224.16 182.361 224.632C182.113 225.104 181.765 225.476 181.317 225.748C180.869 226.012 180.353 226.144 179.769 226.144ZM179.769 225.256C180.169 225.256 180.517 225.16 180.813 224.968C181.109 224.776 181.341 224.512 181.509 224.176C181.685 223.84 181.773 223.448 181.773 223C181.773 222.552 181.685 222.16 181.509 221.824C181.341 221.488 181.105 221.224 180.801 221.032C180.497 220.84 180.145 220.744 179.745 220.744C179.353 220.744 179.005 220.84 178.701 221.032C178.405 221.224 178.169 221.488 177.993 221.824C177.825 222.16 177.741 222.552 177.741 223C177.741 223.44 177.825 223.832 177.993 224.176C178.169 224.512 178.409 224.776 178.713 224.968C179.025 225.16 179.377 225.256 179.769 225.256ZM186.334 226.144C185.75 226.144 185.298 225.992 184.978 225.688C184.658 225.384 184.498 224.956 184.498 224.404V218.128H185.458V224.308C185.458 224.612 185.538 224.848 185.698 225.016C185.866 225.176 186.098 225.256 186.394 225.256C186.49 225.256 186.582 225.244 186.67 225.22C186.766 225.188 186.89 225.116 187.042 225.004L187.414 225.784C187.206 225.92 187.018 226.012 186.85 226.06C186.682 226.116 186.51 226.144 186.334 226.144ZM183.454 220.852V220H187.258V220.852H183.454ZM190.713 226.144C190.273 226.144 189.889 226.08 189.561 225.952C189.233 225.816 188.957 225.64 188.733 225.424C188.517 225.208 188.361 224.972 188.265 224.716L189.105 224.368C189.241 224.64 189.445 224.86 189.717 225.028C189.989 225.196 190.289 225.28 190.617 225.28C190.993 225.28 191.309 225.208 191.565 225.064C191.821 224.912 191.949 224.7 191.949 224.428C191.949 224.18 191.853 223.98 191.661 223.828C191.477 223.676 191.201 223.552 190.833 223.456L190.257 223.3C189.713 223.156 189.289 222.94 188.985 222.652C188.681 222.356 188.529 222.024 188.529 221.656C188.529 221.088 188.713 220.648 189.081 220.336C189.457 220.016 190.013 219.856 190.749 219.856C191.101 219.856 191.421 219.908 191.709 220.012C191.997 220.116 192.245 220.264 192.453 220.456C192.661 220.64 192.813 220.86 192.909 221.116L192.069 221.488C191.965 221.216 191.793 221.02 191.553 220.9C191.313 220.78 191.021 220.72 190.677 220.72C190.309 220.72 190.021 220.8 189.813 220.96C189.605 221.112 189.501 221.328 189.501 221.608C189.501 221.768 189.585 221.92 189.753 222.064C189.929 222.2 190.185 222.312 190.521 222.4L191.121 222.556C191.513 222.652 191.841 222.796 192.105 222.988C192.369 223.172 192.569 223.384 192.705 223.624C192.841 223.864 192.909 224.12 192.909 224.392C192.909 224.752 192.813 225.064 192.621 225.328C192.429 225.592 192.169 225.796 191.841 225.94C191.513 226.076 191.137 226.144 190.713 226.144Z" fill="white"/>
<rect x="43" y="40" width="197" height="22" rx="2" fill="#D9D9D9"/>
<rect x="43" y="109" width="197" height="79" rx="2" fill="#D9D9D9"/>
<rect x="56" y="205" width="32" height="32" rx="4" fill="white"/>
<g clip-path="url(#clip0_347_525)">
<path d="M83.4057 211.168C84.2791 211.168 84.9897 210.457 84.9897 209.584C84.9897 208.711 84.2791 208 83.4057 208C82.5323 208 81.8218 208.711 81.8218 209.584C81.8218 210.457 82.5323 211.168 83.4057 211.168ZM83.4057 208.76C83.8599 208.76 84.2294 209.13 84.2294 209.584C84.2294 210.038 83.8599 210.408 83.4057 210.408C82.9515 210.408 82.582 210.038 82.582 209.584C82.582 209.13 82.9515 208.76 83.4057 208.76Z" fill="black"/>
<path d="M64.4509 232.074H63.1926C62.9827 232.074 62.8125 232.244 62.8125 232.454C62.8125 232.664 62.9826 232.834 63.1926 232.834H64.4509C64.6608 232.834 64.831 232.664 64.831 232.454C64.831 232.244 64.6608 232.074 64.4509 232.074Z" fill="black"/>
<path d="M74.2648 232.074H73.0066C72.7967 232.074 72.6265 232.244 72.6265 232.454C72.6265 232.664 72.7966 232.834 73.0066 232.834H74.2648C74.4748 232.834 74.645 232.664 74.645 232.454C74.645 232.244 74.4748 232.074 74.2648 232.074Z" fill="black"/>
<path d="M67.7218 232.074H66.4636C66.2537 232.074 66.0835 232.244 66.0835 232.454C66.0835 232.664 66.2536 232.834 66.4636 232.834H67.7218C67.9318 232.834 68.102 232.664 68.102 232.454C68.102 232.244 67.9318 232.074 67.7218 232.074Z" fill="black"/>
<path d="M70.9933 232.074H69.7351C69.5252 232.074 69.355 232.244 69.355 232.454C69.355 232.664 69.5251 232.834 69.7351 232.834H70.9933C71.2033 232.834 71.3734 232.664 71.3734 232.454C71.3734 232.244 71.2033 232.074 70.9933 232.074Z" fill="black"/>
<path d="M80.8072 232.074H79.5491C79.3391 232.074 79.1689 232.244 79.1689 232.454C79.1689 232.664 79.3391 232.834 79.5491 232.834H80.8073C81.0172 232.834 81.1874 232.664 81.1874 232.454C81.1874 232.244 81.0172 232.074 80.8072 232.074Z" fill="black"/>
<path d="M77.5358 232.074H76.2776C76.0676 232.074 75.8975 232.244 75.8975 232.454C75.8975 232.664 76.0676 232.834 76.2776 232.834H77.5358C77.7457 232.834 77.9159 232.664 77.9159 232.454C77.9159 232.244 77.7457 232.074 77.5358 232.074Z" fill="black"/>
<path d="M60.9258 222.007C60.9258 221.797 60.7557 221.626 60.5457 221.626C60.3357 221.626 60.1655 221.797 60.1655 222.007V223.265C60.1655 223.475 60.3357 223.645 60.5457 223.645C60.7557 223.645 60.9258 223.475 60.9258 223.265V222.007Z" fill="black"/>
<path d="M60.9258 218.735C60.9258 218.525 60.7557 218.355 60.5457 218.355C60.3357 218.355 60.1655 218.525 60.1655 218.735V219.993C60.1655 220.203 60.3357 220.374 60.5457 220.374C60.7557 220.374 60.9258 220.203 60.9258 219.993V218.735Z" fill="black"/>
<path d="M60.9258 225.278C60.9258 225.068 60.7557 224.898 60.5457 224.898C60.3357 224.898 60.1655 225.068 60.1655 225.278V226.536C60.1655 226.746 60.3357 226.916 60.5457 226.916C60.7557 226.916 60.9258 226.746 60.9258 226.536V225.278Z" fill="black"/>
<path d="M60.5461 228.169C60.3362 228.169 60.166 228.339 60.166 228.549V229.808C60.166 230.017 60.3362 230.188 60.5461 230.188C60.7561 230.188 60.9263 230.018 60.9263 229.808V228.549C60.9262 228.339 60.7561 228.169 60.5461 228.169Z" fill="black"/>
<path d="M60.9258 212.193C60.9258 211.983 60.7557 211.812 60.5457 211.812C60.3357 211.812 60.1655 211.983 60.1655 212.193V213.451C60.1655 213.661 60.3357 213.831 60.5457 213.831C60.7557 213.831 60.9258 213.661 60.9258 213.451V212.193Z" fill="black"/>
<path d="M60.9258 215.464C60.9258 215.254 60.7557 215.084 60.5457 215.084C60.3357 215.084 60.1655 215.254 60.1655 215.464V216.722C60.1655 216.932 60.3357 217.102 60.5457 217.102C60.7557 217.102 60.9258 216.932 60.9258 216.722V215.464Z" fill="black"/>
<path d="M66.4641 209.926H67.7223C67.9323 209.926 68.1024 209.756 68.1024 209.546C68.1024 209.336 67.9323 209.166 67.7223 209.166H66.4641C66.2542 209.166 66.084 209.336 66.084 209.546C66.084 209.756 66.2542 209.926 66.4641 209.926Z" fill="black"/>
<path d="M79.5491 209.926H80.8073C81.0173 209.926 81.1875 209.756 81.1875 209.546C81.1875 209.336 81.0173 209.166 80.8073 209.166H79.5491C79.3391 209.166 79.1689 209.336 79.1689 209.546C79.1689 209.756 79.3391 209.926 79.5491 209.926Z" fill="black"/>
<path d="M69.7351 209.926H70.9934C71.2033 209.926 71.3735 209.756 71.3735 209.546C71.3735 209.336 71.2034 209.166 70.9934 209.166H69.7351C69.5252 209.166 69.355 209.336 69.355 209.546C69.355 209.756 69.5252 209.926 69.7351 209.926Z" fill="black"/>
<path d="M73.0066 209.926H74.2648C74.4747 209.926 74.6449 209.756 74.6449 209.546C74.6449 209.336 74.4748 209.166 74.2648 209.166H73.0066C72.7967 209.166 72.6265 209.336 72.6265 209.546C72.6265 209.756 72.7967 209.926 73.0066 209.926Z" fill="black"/>
<path d="M76.2781 209.926H77.5363C77.7462 209.926 77.9164 209.756 77.9164 209.546C77.9164 209.336 77.7463 209.166 77.5363 209.166H76.2781C76.0681 209.166 75.8979 209.336 75.8979 209.546C75.8979 209.756 76.0681 209.926 76.2781 209.926Z" fill="black"/>
<path d="M63.1926 209.926H64.4508C64.6608 209.926 64.831 209.756 64.831 209.546C64.831 209.336 64.6608 209.166 64.4508 209.166H63.1926C62.9827 209.166 62.8125 209.336 62.8125 209.546C62.8125 209.756 62.9827 209.926 63.1926 209.926Z" fill="black"/>
<path d="M83.834 222.007C83.834 221.797 83.6639 221.626 83.4539 221.626C83.2439 221.626 83.0737 221.797 83.0737 222.007V223.265C83.0737 223.475 83.2439 223.645 83.4539 223.645C83.6639 223.645 83.834 223.475 83.834 223.265V222.007Z" fill="black"/>
<path d="M83.834 218.735C83.834 218.525 83.6639 218.355 83.4539 218.355C83.2439 218.355 83.0737 218.525 83.0737 218.735V219.993C83.0737 220.203 83.2439 220.374 83.4539 220.374C83.6639 220.374 83.834 220.203 83.834 219.993V218.735Z" fill="black"/>
<path d="M83.4539 228.169C83.2439 228.169 83.0737 228.339 83.0737 228.549V229.808C83.0737 230.017 83.2439 230.188 83.4539 230.188C83.6639 230.188 83.834 230.018 83.834 229.808V228.549C83.8339 228.339 83.6638 228.169 83.4539 228.169Z" fill="black"/>
<path d="M83.834 225.278C83.834 225.068 83.6639 224.898 83.4539 224.898C83.2439 224.898 83.0737 225.068 83.0737 225.278V226.536C83.0737 226.746 83.2439 226.916 83.4539 226.916C83.6639 226.916 83.834 226.746 83.834 226.536V225.278Z" fill="black"/>
<path d="M83.834 215.464C83.834 215.254 83.6639 215.084 83.4539 215.084C83.2439 215.084 83.0737 215.254 83.0737 215.464V216.722C83.0737 216.932 83.2439 217.102 83.4539 217.102C83.6639 217.102 83.834 216.932 83.834 216.722V215.464Z" fill="black"/>
<path d="M83.834 212.193C83.834 211.983 83.6639 211.812 83.4539 211.812C83.2439 211.812 83.0737 211.983 83.0737 212.193V213.451C83.0737 213.661 83.2439 213.831 83.4539 213.831C83.6639 213.831 83.834 213.661 83.834 213.451V212.193Z" fill="black"/>
<path d="M60.5942 211.168C61.4676 211.168 62.1781 210.457 62.1781 209.584C62.1781 208.711 61.4676 208 60.5942 208C59.7208 208 59.0103 208.711 59.0103 209.584C59.0103 210.457 59.7208 211.168 60.5942 211.168ZM60.5942 208.76C61.0484 208.76 61.4179 209.13 61.4179 209.584C61.4179 210.038 61.0483 210.408 60.5942 210.408C60.14 210.408 59.7705 210.038 59.7705 209.584C59.7705 209.13 60.14 208.76 60.5942 208.76Z" fill="black"/>
<path d="M83.4057 230.832C82.5323 230.832 81.8218 231.543 81.8218 232.416C81.8218 233.289 82.5323 234 83.4057 234C84.2791 234 84.9897 233.29 84.9897 232.416C84.9897 231.543 84.2791 230.832 83.4057 230.832ZM83.4057 233.24C82.9515 233.24 82.582 232.87 82.582 232.416C82.582 231.962 82.9516 231.592 83.4057 231.592C83.8599 231.592 84.2294 231.962 84.2294 232.416C84.2294 232.87 83.8599 233.24 83.4057 233.24Z" fill="black"/>
<path d="M60.5942 230.832C59.7208 230.832 59.0103 231.543 59.0103 232.416C59.0103 233.289 59.7208 234 60.5942 234C61.4676 234 62.1781 233.29 62.1781 232.416C62.1781 231.543 61.4676 230.832 60.5942 230.832ZM60.5942 233.24C60.14 233.24 59.7705 232.87 59.7705 232.416C59.7705 231.962 60.1401 231.592 60.5942 231.592C61.0484 231.592 61.4179 231.962 61.4179 232.416C61.4179 232.87 61.0484 233.24 60.5942 233.24Z" fill="black"/>
<path d="M82.0326 212.738C82.0326 211.994 81.4271 211.388 80.6829 211.388H63.3175C62.5732 211.388 61.9678 211.994 61.9678 212.738V214.083C61.9678 214.293 62.1379 214.463 62.3479 214.463C62.5579 214.463 62.728 214.293 62.728 214.083V212.738C62.728 212.413 62.9925 212.149 63.3175 212.149H80.6829C81.0079 212.149 81.2724 212.413 81.2724 212.738V222.195L79.6799 221.192C79.5023 221.081 79.2675 221.134 79.1557 221.311C79.0438 221.489 79.0972 221.724 79.2748 221.836L81.2724 223.093V229.262C81.2724 229.587 81.0079 229.851 80.6829 229.851H77.7547V226.895C77.7547 226.07 77.3646 225.276 76.7112 224.772L72.7502 221.715L75.3038 220.256C75.7767 219.986 76.3568 219.999 76.8177 220.289L77.7711 220.889C77.9488 221.001 78.1836 220.948 78.2953 220.77C78.4072 220.592 78.3539 220.358 78.1762 220.246L77.2228 219.645C76.5237 219.205 75.6439 219.186 74.9267 219.596L72.0984 221.212L68.7042 218.592C67.9998 218.049 67.0413 217.975 66.2621 218.405L62.728 220.356V215.881C62.728 215.671 62.5579 215.501 62.3479 215.501C62.1379 215.501 61.9678 215.671 61.9678 215.881V229.262C61.9678 230.006 62.5732 230.612 63.3175 230.612H80.6829C81.4271 230.612 82.0326 230.006 82.0326 229.262V212.738ZM76.9945 229.851H63.3175C62.9924 229.851 62.728 229.587 62.728 229.262V221.224L66.6295 219.071C67.1431 218.787 67.7751 218.836 68.2397 219.194L76.2468 225.374C76.715 225.735 76.9945 226.304 76.9945 226.895V229.851Z" fill="black"/>
<path d="M77.1963 217.845C78.4542 217.845 79.4775 216.822 79.4775 215.564C79.4775 214.306 78.4541 213.283 77.1963 213.283C75.9384 213.283 74.915 214.306 74.915 215.564C74.915 216.822 75.9384 217.845 77.1963 217.845ZM77.1963 214.043C78.035 214.043 78.7173 214.725 78.7173 215.564C78.7173 216.402 78.035 217.085 77.1963 217.085C76.3576 217.085 75.6753 216.402 75.6753 215.564C75.6753 214.725 76.3576 214.043 77.1963 214.043Z" fill="black"/>
</g>
<defs>
<linearGradient id="paint0_linear_347_525" x1="139.937" y1="254.002" x2="139.937" y2="0.536355" gradientUnits="userSpaceOnUse">
<stop stop-color="#004AC2"/>
<stop offset="1" stop-color="#0083C2"/>
</linearGradient>
<linearGradient id="paint1_linear_347_525" x1="276.129" y1="126.745" x2="-0.000746177" y2="126.745" gradientUnits="userSpaceOnUse">
<stop stop-color="#00EFF1"/>
<stop offset="1" stop-color="#0098FF"/>
</linearGradient>
<radialGradient id="paint2_radial_347_525" cx="0" cy="0" r="1" gradientUnits="userSpaceOnUse" gradientTransform="translate(138.605 126.346) rotate(-90) scale(138.029 125.92)">
<stop stop-color="#0025AE"/>
<stop offset="1" stop-color="#008CCA"/>
</radialGradient>
<radialGradient id="paint3_radial_347_525" cx="0" cy="0" r="1" gradientUnits="userSpaceOnUse" gradientTransform="translate(153.736 201.084) rotate(176.252) scale(2.35801 2.58291)">
<stop stop-color="#00B359"/>
<stop offset="0.13" stop-color="#009148"/>
<stop offset="0.34" stop-color="#005D2E"/>
<stop offset="0.54" stop-color="#00351A"/>
<stop offset="0.73" stop-color="#00170B"/>
<stop offset="0.89" stop-color="#000603"/>
<stop offset="1"/>
</radialGradient>
<radialGradient id="paint4_radial_347_525" cx="0" cy="0" r="1" gradientUnits="userSpaceOnUse" gradientTransform="translate(143.608 197.571) rotate(176.252) scale(2.35801 2.58291)">
<stop stop-color="#00B359"/>
<stop offset="0.13" stop-color="#009148"/>
<stop offset="0.34" stop-color="#005D2E"/>
<stop offset="0.54" stop-color="#00351A"/>
<stop offset="0.73" stop-color="#00170B"/>
<stop offset="0.89" stop-color="#000603"/>
<stop offset="1"/>
</radialGradient>
<radialGradient id="paint5_radial_347_525" cx="0" cy="0" r="1" gradientUnits="userSpaceOnUse" gradientTransform="translate(172.662 199.632) rotate(176.252) scale(2.358 2.58291)">
<stop stop-color="#00B359"/>
<stop offset="0.13" stop-color="#009148"/>
<stop offset="0.34" stop-color="#005D2E"/>
<stop offset="0.54" stop-color="#00351A"/>
<stop offset="0.73" stop-color="#00170B"/>
<stop offset="0.89" stop-color="#000603"/>
<stop offset="1"/>
</radialGradient>
<radialGradient id="paint6_radial_347_525" cx="0" cy="0" r="1" gradientUnits="userSpaceOnUse" gradientTransform="translate(142.659 211.538) rotate(176.252) scale(6.60698 7.23714)">
<stop stop-color="#00B359"/>
<stop offset="0.13" stop-color="#009148"/>
<stop offset="0.34" stop-color="#005D2E"/>
<stop offset="0.54" stop-color="#00351A"/>
<stop offset="0.73" stop-color="#00170B"/>
<stop offset="0.89" stop-color="#000603"/>
<stop offset="1"/>
</radialGradient>
<radialGradient id="paint7_radial_347_525" cx="0" cy="0" r="1" gradientUnits="userSpaceOnUse" gradientTransform="translate(190.469 62.9904) rotate(176.252) scale(6.60698 7.23715)">
<stop stop-color="#00B359"/>
<stop offset="0.13" stop-color="#009148"/>
<stop offset="0.34" stop-color="#005D2E"/>
<stop offset="0.54" stop-color="#00351A"/>
<stop offset="0.73" stop-color="#00170B"/>
<stop offset="0.89" stop-color="#000603"/>
<stop offset="1"/>
</radialGradient>
<radialGradient id="paint8_radial_347_525" cx="0" cy="0" r="1" gradientUnits="userSpaceOnUse" gradientTransform="translate(183.859 25.8724) rotate(176.252) scale(3.1554 3.45636)">
<stop stop-color="#00B359"/>
<stop offset="0.13" stop-color="#009148"/>
<stop offset="0.34" stop-color="#005D2E"/>
<stop offset="0.54" stop-color="#00351A"/>
<stop offset="0.73" stop-color="#00170B"/>
<stop offset="0.89" stop-color="#000603"/>
<stop offset="1"/>
</radialGradient>
<radialGradient id="paint9_radial_347_525" cx="0" cy="0" r="1" gradientUnits="userSpaceOnUse" gradientTransform="translate(189.616 191.106) rotate(176.252) scale(3.1554 3.45636)">
<stop stop-color="#00B359"/>
<stop offset="0.13" stop-color="#009148"/>
<stop offset="0.34" stop-color="#005D2E"/>
<stop offset="0.54" stop-color="#00351A"/>
<stop offset="0.73" stop-color="#00170B"/>
<stop offset="0.89" stop-color="#000603"/>
<stop offset="1"/>
</radialGradient>
<radialGradient id="paint10_radial_347_525" cx="0" cy="0" r="1" gradientUnits="userSpaceOnUse" gradientTransform="translate(176.25 91.9822) rotate(176.252) scale(1.572 1.72194)">
<stop stop-color="#00B359"/>
<stop offset="0.13" stop-color="#009148"/>
<stop offset="0.34" stop-color="#005D2E"/>
<stop offset="0.54" stop-color="#00351A"/>
<stop offset="0.73" stop-color="#00170B"/>
<stop offset="0.89" stop-color="#000603"/>
<stop offset="1"/>
</radialGradient>
<radialGradient id="paint11_radial_347_525" cx="0" cy="0" r="1" gradientUnits="userSpaceOnUse" gradientTransform="translate(196.361 221.9) rotate(176.252) scale(1.572 1.72194)">
<stop stop-color="#00B359"/>
<stop offset="0.13" stop-color="#009148"/>
<stop offset="0.34" stop-color="#005D2E"/>
<stop offset="0.54" stop-color="#00351A"/>
<stop offset="0.73" stop-color="#00170B"/>
<stop offset="0.89" stop-color="#000603"/>
<stop offset="1"/>
</radialGradient>
<radialGradient id="paint12_radial_347_525" cx="0" cy="0" r="1" gradientUnits="userSpaceOnUse" gradientTransform="translate(169.301 173.342) rotate(176.252) scale(1.572 1.72194)">
<stop stop-color="#00B359"/>
<stop offset="0.13" stop-color="#009148"/>
<stop offset="0.34" stop-color="#005D2E"/>
<stop offset="0.54" stop-color="#00351A"/>
<stop offset="0.73" stop-color="#00170B"/>
<stop offset="0.89" stop-color="#000603"/>
<stop offset="1"/>
</radialGradient>
<radialGradient id="paint13_radial_347_525" cx="0" cy="0" r="1" gradientUnits="userSpaceOnUse" gradientTransform="translate(193.642 197.344) rotate(176.252) scale(1.17332 1.28522)">
<stop stop-color="#00B359"/>
<stop offset="0.13" stop-color="#009148"/>
<stop offset="0.34" stop-color="#005D2E"/>
<stop offset="0.54" stop-color="#00351A"/>
<stop offset="0.73" stop-color="#00170B"/>
<stop offset="0.89" stop-color="#000603"/>
<stop offset="1"/>
</radialGradient>
<radialGradient id="paint14_radial_347_525" cx="0" cy="0" r="1" gradientUnits="userSpaceOnUse" gradientTransform="translate(198.074 107.709) rotate(176.252) scale(2.46053 2.69521)">
<stop stop-color="#00B359"/>
<stop offset="0.13" stop-color="#009148"/>
<stop offset="0.34" stop-color="#005D2E"/>
<stop offset="0.54" stop-color="#00351A"/>
<stop offset="0.73" stop-color="#00170B"/>
<stop offset="0.89" stop-color="#000603"/>
<stop offset="1"/>
</radialGradient>
<radialGradient id="paint15_radial_347_525" cx="0" cy="0" r="1" gradientUnits="userSpaceOnUse" gradientTransform="translate(199.854 164.613) rotate(176.252) scale(2.46053 2.69521)">
<stop stop-color="#00B359"/>
<stop offset="0.13" stop-color="#009148"/>
<stop offset="0.34" stop-color="#005D2E"/>
<stop offset="0.54" stop-color="#00351A"/>
<stop offset="0.73" stop-color="#00170B"/>
<stop offset="0.89" stop-color="#000603"/>
<stop offset="1"/>
</radialGradient>
<linearGradient id="paint16_linear_347_525" x1="22.6027" y1="247.299" x2="22.6027" y2="34.7505" gradientUnits="userSpaceOnUse">
<stop stop-color="#23786E"/>
<stop offset="0.18" stop-color="#1E675F"/>
<stop offset="0.54" stop-color="#123D38"/>
<stop offset="1"/>
</linearGradient>
<clipPath id="clip0_347_525">
<rect width="26" height="26" fill="white" transform="translate(59 208)"/>
</clipPath>
</defs>
</svg>
