<?xml version="1.0" encoding="UTF-8"?>
<svg xmlns="http://www.w3.org/2000/svg" xmlns:xlink="http://www.w3.org/1999/xlink" viewBox="0 0 56.06 21.5">
  <defs>
    <filter id="luminosity-noclip" x="2.52" y="1.09" width="51.01" height="17.11" color-interpolation-filters="sRGB" filterUnits="userSpaceOnUse">
      <feFlood flood-color="#fff" result="bg"/>
      <feBlend in="SourceGraphic" in2="bg"/>
    </filter>
    <filter id="luminosity-noclip-2" x="2.52" y="-8459.19" width="51.01" height="32766" color-interpolation-filters="sRGB" filterUnits="userSpaceOnUse">
      <feFlood flood-color="#fff" result="bg"/>
      <feBlend in="SourceGraphic" in2="bg"/>
    </filter>
    <mask id="mask-1" x="2.52" y="-8459.19" width="51.01" height="32766" maskUnits="userSpaceOnUse"/>
    <radialGradient id="_Áåçûìÿííûé_ãðàäèåíò_1031" data-name="Áåçûìÿííûé ãðàäèåíò 1031" cx="-619.66" cy="-77.87" fx="-619.66" fy="-77.87" r="11.14" gradientTransform="translate(1854.53 118.06) scale(2.95 1.44)" gradientUnits="userSpaceOnUse">
      <stop offset="0" stop-color="gray"/>
      <stop offset=".15" stop-color="#858585"/>
      <stop offset=".34" stop-color="#959595"/>
      <stop offset=".55" stop-color="#b0b0b0"/>
      <stop offset=".78" stop-color="#d5d5d5"/>
      <stop offset="1" stop-color="#fff"/>
    </radialGradient>
    <mask id="mask" x="2.52" y="1.09" width="51.01" height="17.11" maskUnits="userSpaceOnUse">
      <g style="filter: url(#luminosity-noclip);">
        <g style="mask: url(#mask-1);">
          <path d="m51.7,2.19c-1.15-.54-12.41-1.13-23.67-1.1-11.26-.03-22.52.56-23.67,1.1-.94.46-2.03,3.87-1.8,7.25.08,3.38,1.49,6.74,2.22,7.07,1.03.44,12.14,1.71,23.25,1.68,11.11.03,22.22-1.24,23.26-1.68.72-.33,2.13-3.69,2.21-7.07.23-3.38-.86-6.79-1.8-7.25Z" style="fill: url(#_Áåçûìÿííûé_ãðàäèåíò_1031); mix-blend-mode: multiply; stroke-width: 0px;"/>
        </g>
      </g>
    </mask>
    <radialGradient id="_Áåçûìÿííûé_ãðàäèåíò_381" data-name="Áåçûìÿííûé ãðàäèåíò 381" cx="-619.66" cy="-77.87" fx="-619.66" fy="-77.87" r="11.14" gradientTransform="translate(1854.53 118.06) scale(2.95 1.44)" gradientUnits="userSpaceOnUse">
      <stop offset="0" stop-color="#004dcd"/>
      <stop offset=".13" stop-color="#0152ce"/>
      <stop offset=".3" stop-color="#0462d3"/>
      <stop offset=".48" stop-color="#0a7ddc"/>
      <stop offset=".69" stop-color="#13a2e8"/>
      <stop offset=".9" stop-color="#1dd2f7"/>
      <stop offset="1" stop-color="#23ebff"/>
    </radialGradient>
    <radialGradient id="_Áåçûìÿííûé_ãðàäèåíò_33" data-name="Áåçûìÿííûé ãðàäèåíò 33" cx="-619.75" cy="-79.66" fx="-619.75" fy="-79.66" r="8.47" gradientTransform="translate(1854.53 118.06) scale(2.95 1.44)" gradientUnits="userSpaceOnUse">
      <stop offset="0" stop-color="#004dcd"/>
      <stop offset="1" stop-color="#1481d1"/>
    </radialGradient>
    <filter id="luminosity-noclip-3" x="2.58" y="10" width="50.89" height="8.2" color-interpolation-filters="sRGB" filterUnits="userSpaceOnUse">
      <feFlood flood-color="#fff" result="bg"/>
      <feBlend in="SourceGraphic" in2="bg"/>
    </filter>
    <filter id="luminosity-noclip-4" x="2.58" y="-8459.19" width="50.89" height="32766" color-interpolation-filters="sRGB" filterUnits="userSpaceOnUse">
      <feFlood flood-color="#fff" result="bg"/>
      <feBlend in="SourceGraphic" in2="bg"/>
    </filter>
    <mask id="mask-3" x="2.58" y="-8459.19" width="50.89" height="32766" maskUnits="userSpaceOnUse"/>
    <radialGradient id="_Áåçûìÿííûé_ãðàäèåíò_1000" data-name="Áåçûìÿííûé ãðàäèåíò 1000" cx="41.48" cy="-37.85" fx="41.48" fy="-37.85" r="27.61" gradientTransform="translate(-11.72 61.84) scale(.97 1.26)" gradientUnits="userSpaceOnUse">
      <stop offset="0" stop-color="gray"/>
      <stop offset=".15" stop-color="#8b8b8b"/>
      <stop offset=".42" stop-color="#aaa"/>
      <stop offset=".78" stop-color="#dcdcdc"/>
      <stop offset="1" stop-color="#fff"/>
    </radialGradient>
    <mask id="mask-2" x="2.58" y="10" width="50.89" height="8.2" maskUnits="userSpaceOnUse">
      <g style="filter: url(#luminosity-noclip-3);">
        <g style="mask: url(#mask-3);">
          <path d="m51.63,14.56c-1.07.44-12.06,1.27-23.6,1.25-11.53.03-22.59-1.12-23.66-1.56-.35-.15-1.53-2.29-1.79-4.25.21,3.19,1.5,6.2,2.19,6.52,1.03.44,12.14,1.71,23.25,1.68,11.11.03,22.22-1.24,23.26-1.68.68-.31,1.98-3.33,2.19-6.52-.29,2.1-1.5,4.41-1.85,4.56Z" style="fill: url(#_Áåçûìÿííûé_ãðàäèåíò_1000); mix-blend-mode: multiply; stroke-width: 0px;"/>
        </g>
      </g>
    </mask>
    <radialGradient id="_Áåçûìÿííûé_ãðàäèåíò_35" data-name="Áåçûìÿííûé ãðàäèåíò 35" cx="41.48" cy="-37.85" fx="41.48" fy="-37.85" r="27.61" gradientTransform="translate(-11.72 61.84) scale(.97 1.26)" gradientUnits="userSpaceOnUse">
      <stop offset="0" stop-color="#004dcd"/>
      <stop offset=".31" stop-color="#0458cd"/>
      <stop offset=".85" stop-color="#1077d0"/>
      <stop offset="1" stop-color="#1481d1"/>
    </radialGradient>
    <filter id="luminosity-noclip-5" x="0" y="2.58" width="56.06" height="18.93" color-interpolation-filters="sRGB" filterUnits="userSpaceOnUse">
      <feFlood flood-color="#fff" result="bg"/>
      <feBlend in="SourceGraphic" in2="bg"/>
    </filter>
    <filter id="luminosity-noclip-6" x="0" y="-8459.19" width="56.06" height="32766" color-interpolation-filters="sRGB" filterUnits="userSpaceOnUse">
      <feFlood flood-color="#fff" result="bg"/>
      <feBlend in="SourceGraphic" in2="bg"/>
    </filter>
    <mask id="mask-5" x="0" y="-8459.19" width="56.06" height="32766" maskUnits="userSpaceOnUse"/>
    <radialGradient id="_Áåçûìÿííûé_ãðàäèåíò_1000-2" data-name="Áåçûìÿííûé ãðàäèåíò 1000" cx="-17.93" cy="-74.57" fx="-17.93" fy="-74.57" r="26.73" gradientTransform="translate(46.7 115.65) scale(1.02 1.44)" xlink:href="#_Áåçûìÿííûé_ãðàäèåíò_1000"/>
    <mask id="mask-4" x="0" y="2.58" width="56.06" height="18.93" maskUnits="userSpaceOnUse">
      <g style="filter: url(#luminosity-noclip-5);">
        <g style="mask: url(#mask-5);">
          <path d="m54.05,2.59s-.02,0-.03-.01c.65,1.57,1.15,4.24.98,6.88-.09,3.85-1.58,7.67-2.35,8.05-1.09.5-12.86,1.95-24.63,1.91-11.77.03-23.54-1.42-24.63-1.91-.77-.38-2.26-4.2-2.35-8.05-.17-2.65.33-5.31.98-6.88,0,0-.02,0-.03.01C2,2.59-.23,7.16.02,11.16c.09,4,1.64,7.96,2.44,8.36,1.14.52,13.35,2.02,25.57,1.99,12.22.03,24.44-1.47,25.57-1.99.79-.39,2.34-4.36,2.43-8.36.25-4-1.98-8.57-1.98-8.57Z" style="fill: url(#_Áåçûìÿííûé_ãðàäèåíò_1000-2); mix-blend-mode: multiply; stroke-width: 0px;"/>
        </g>
      </g>
    </mask>
    <radialGradient id="_Áåçûìÿííûé_ãðàäèåíò_35-2" data-name="Áåçûìÿííûé ãðàäèåíò 35" cx="-17.93" cy="-74.57" fx="-17.93" fy="-74.57" r="26.73" gradientTransform="translate(46.7 115.65) scale(1.02 1.44)" xlink:href="#_Áåçûìÿííûé_ãðàäèåíò_35"/>
  </defs>
  <g style="isolation: isolate;">
    <g id="Layer_2" data-name="Layer 2">
      <g id="Layer_1-2" data-name="Layer 1">
        <g>
          <g style="mask: url(#mask);">
            <path d="m51.7,2.19c-1.15-.54-12.41-1.13-23.67-1.1-11.26-.03-22.52.56-23.67,1.1-.94.46-2.03,3.87-1.8,7.25.08,3.38,1.49,6.74,2.22,7.07,1.03.44,12.14,1.71,23.25,1.68,11.11.03,22.22-1.24,23.26-1.68.72-.33,2.13-3.69,2.21-7.07.23-3.38-.86-6.79-1.8-7.25Z" style="fill: url(#_Áåçûìÿííûé_ãðàäèåíò_381); stroke-width: 0px;"/>
          </g>
          <path d="m50.93,2.43c-1.11-.52-12.01-1.09-22.9-1.06-10.89-.03-21.79.54-22.9,1.06-4.53,3.82,12.15,3.84,22.9,3.82,10.75.03,25.5-.62,22.9-3.82Z" style="fill: url(#_Áåçûìÿííûé_ãðàäèåíò_33); mix-blend-mode: screen; opacity: .59; stroke-width: 0px;"/>
          <g style="mask: url(#mask-2);">
            <path d="m51.63,14.56c-1.07.44-12.06,1.27-23.6,1.25-11.53.03-22.59-1.12-23.66-1.56-.35-.15-1.53-2.29-1.79-4.25.21,3.19,1.5,6.2,2.19,6.52,1.03.44,12.14,1.71,23.25,1.68,11.11.03,22.22-1.24,23.26-1.68.68-.31,1.98-3.33,2.19-6.52-.29,2.1-1.5,4.41-1.85,4.56Z" style="fill: url(#_Áåçûìÿííûé_ãðàäèåíò_35); mix-blend-mode: multiply; opacity: .37; stroke-width: 0px;"/>
          </g>
          <g style="mask: url(#mask-4);">
            <path d="m54.05,2.59s-.02,0-.03-.01c.65,1.57,1.15,4.24.98,6.88-.09,3.85-1.58,7.67-2.35,8.05-1.09.5-12.86,1.95-24.63,1.91-11.77.03-23.54-1.42-24.63-1.91-.77-.38-2.26-4.2-2.35-8.05-.17-2.65.33-5.31.98-6.88,0,0-.02,0-.03.01C2,2.59-.23,7.16.02,11.16c.09,4,1.64,7.96,2.44,8.36,1.14.52,13.35,2.02,25.57,1.99,12.22.03,24.44-1.47,25.57-1.99.79-.39,2.34-4.36,2.43-8.36.25-4-1.98-8.57-1.98-8.57Z" style="fill: url(#_Áåçûìÿííûé_ãðàäèåíò_35-2); mix-blend-mode: multiply; opacity: .48; stroke-width: 0px;"/>
          </g>
          <path d="m53.09,1.24C51.87.63,39.95-.03,28.03,0,16.11-.03,4.18.63,2.97,1.24c-.99.52-2.15,4.37-1.91,8.18.09,3.81,1.58,7.6,2.35,7.98,1.09.49,12.86,1.93,24.62,1.9,11.76.03,23.53-1.4,24.62-1.9.77-.38,2.26-4.16,2.34-7.98.24-3.82-.91-7.66-1.91-8.18Zm.41,8.21c-.08,3.38-1.49,6.74-2.21,7.07-1.03.44-12.15,1.71-23.26,1.68-11.11.03-22.22-1.24-23.25-1.68-.72-.33-2.13-3.69-2.22-7.07-.23-3.38.86-6.79,1.8-7.25,1.15-.54,12.41-1.13,23.67-1.1,11.26-.03,22.52.56,23.67,1.1.94.46,2.03,3.87,1.8,7.25Z" style="fill: #ebeaf9; stroke-width: 0px;"/>
          <path d="m52.21,1.8c-1.17-.57-12.68-1.19-24.18-1.16-11.5-.03-23,.59-24.18,1.16-.96.49-2.08,4.08-1.84,7.64.09,3.56,1.52,7.1,2.26,7.45,1.05.46,12.4,1.8,23.75,1.77,11.35.03,22.7-1.31,23.76-1.77.74-.35,2.18-3.89,2.26-7.45.23-3.56-.88-7.15-1.84-7.64Zm1.29,7.65c-.08,3.38-1.49,6.74-2.21,7.07-1.03.44-12.15,1.71-23.26,1.68-11.11.03-22.22-1.24-23.25-1.68-.72-.33-2.13-3.69-2.22-7.07-.23-3.38.86-6.79,1.8-7.25,1.15-.54,12.41-1.13,23.67-1.1,11.26-.03,22.52.56,23.67,1.1.94.46,2.03,3.87,1.8,7.25Z" style="fill: #a59fe3; stroke-width: 0px;"/>
        </g>
      </g>
    </g>
  </g>
</svg>