<?xml version="1.0" encoding="UTF-8"?>
<svg xmlns="http://www.w3.org/2000/svg" xmlns:xlink="http://www.w3.org/1999/xlink" viewBox="0 0 33.47 28.67">
  <defs>
    <radialGradient id="_Áåçûìÿííûé_ãðàäèåíò_1218" data-name="Áåçûìÿííûé ãðàäèåíò 1218" cx="22.75" cy="39.86" fx="22.75" fy="39.86" r="32.78" gradientTransform="translate(-5.16 -3.06) scale(.97 .87)" gradientUnits="userSpaceOnUse">
      <stop offset="0" stop-color="#0055f3"/>
      <stop offset=".13" stop-color="#0160f3"/>
      <stop offset=".37" stop-color="#057ff6"/>
      <stop offset=".69" stop-color="#0cb1fa"/>
      <stop offset="1" stop-color="#14eaff"/>
    </radialGradient>
    <radialGradient id="_Áåçûìÿííûé_ãðàäèåíò_246" data-name="Áåçûìÿííûé ãðàäèåíò 246" cx="22.75" cy="39.86" fx="22.75" fy="39.86" r="32.78" gradientTransform="translate(-5.16 -3.06) scale(.97 .87)" gradientUnits="userSpaceOnUse">
      <stop offset="0" stop-color="#004dcd"/>
      <stop offset=".15" stop-color="#0158d1"/>
      <stop offset=".41" stop-color="#0677dd"/>
      <stop offset=".75" stop-color="#0ea9f0"/>
      <stop offset="1" stop-color="#14d1ff"/>
    </radialGradient>
    <filter id="luminosity-noclip" x=".92" y=".6" width="30.51" height="12.97" color-interpolation-filters="sRGB" filterUnits="userSpaceOnUse">
      <feFlood flood-color="#fff" result="bg"/>
      <feBlend in="SourceGraphic" in2="bg"/>
    </filter>
    <filter id="luminosity-noclip-2" x=".92" y="-8183.13" width="30.51" height="32766" color-interpolation-filters="sRGB" filterUnits="userSpaceOnUse">
      <feFlood flood-color="#fff" result="bg"/>
      <feBlend in="SourceGraphic" in2="bg"/>
    </filter>
    <mask id="mask-1" x=".92" y="-8183.13" width="30.51" height="32766" maskUnits="userSpaceOnUse"/>
    <radialGradient id="_Áåçûìÿííûé_ãðàäèåíò_1017" data-name="Áåçûìÿííûé ãðàäèåíò 1017" cx="34.92" cy="-2.69" fx="34.92" fy="-2.69" r="27.75" gradientTransform="translate(-5.16 -3.06) scale(.97 .87)" gradientUnits="userSpaceOnUse">
      <stop offset="0" stop-color="#000"/>
      <stop offset=".09" stop-color="#0b0b0b"/>
      <stop offset=".25" stop-color="#2a2a2a"/>
      <stop offset=".45" stop-color="#5d5d5d"/>
      <stop offset=".7" stop-color="#a2a2a2"/>
      <stop offset=".99" stop-color="#fafafa"/>
      <stop offset="1" stop-color="#fff"/>
    </radialGradient>
    <mask id="mask" x=".92" y=".6" width="30.51" height="12.97" maskUnits="userSpaceOnUse">
      <g style="filter: url(#luminosity-noclip);">
        <g style="mask: url(#mask-1);">
          <path d="m31.4,4.21c.16-.58-.24-1.41-.69-1.83-.71-.59-7.21-1.74-13.97-1.78-6.77.04-13.27,1.19-13.97,1.78C1.81,3.17-.05,11.67,1.56,13.03c.93.78,2.37.57,3.47.27,4.45-1.25,7.62-5.26,11.51-7.46,4.06-2.29,10.55-4.59,14.86-1.62Z" style="fill: url(#_Áåçûìÿííûé_ãðàäèåíò_1017); mix-blend-mode: multiply; stroke-width: 0px;"/>
        </g>
      </g>
    </mask>
    <radialGradient id="_Áåçûìÿííûé_ãðàäèåíò_245" data-name="Áåçûìÿííûé ãðàäèåíò 245" cx="34.92" cy="-2.69" fx="34.92" fy="-2.69" r="27.75" gradientTransform="translate(-5.16 -3.06) scale(.97 .87)" gradientUnits="userSpaceOnUse">
      <stop offset="0" stop-color="#004dcd"/>
      <stop offset=".2" stop-color="#0258d3"/>
      <stop offset=".56" stop-color="#0977e4"/>
      <stop offset="1" stop-color="#14a6ff"/>
    </radialGradient>
    <filter id="luminosity-noclip-3" x="1.92" y="12.33" width="30.85" height="13.67" color-interpolation-filters="sRGB" filterUnits="userSpaceOnUse">
      <feFlood flood-color="#fff" result="bg"/>
      <feBlend in="SourceGraphic" in2="bg"/>
    </filter>
    <filter id="luminosity-noclip-4" x="1.92" y="-8183.13" width="30.85" height="32766" color-interpolation-filters="sRGB" filterUnits="userSpaceOnUse">
      <feFlood flood-color="#fff" result="bg"/>
      <feBlend in="SourceGraphic" in2="bg"/>
    </filter>
    <mask id="mask-3" x="1.92" y="-8183.13" width="30.85" height="32766" maskUnits="userSpaceOnUse"/>
    <radialGradient id="_Áåçûìÿííûé_ãðàäèåíò_1017-2" data-name="Áåçûìÿííûé ãðàäèåíò 1017" cx="11.9" cy="27.25" fx="11.9" fy="27.25" r="30.8" xlink:href="#_Áåçûìÿííûé_ãðàäèåíò_1017"/>
    <mask id="mask-2" x="1.92" y="12.33" width="30.85" height="13.67" maskUnits="userSpaceOnUse">
      <g style="filter: url(#luminosity-noclip-3);">
        <g style="mask: url(#mask-3);">
          <path d="m32.64,17.35c.33-2.6.16-5.02-1.41-5.02-1.34,0-3.18,2.11-4.06,2.85-5.72,4.82-11.96,8.88-20.21,8.53-1.94-.08-3.88-.41-5.03-1.97,0,.54.17,1.13.44,1.62.59,1.09,7.39,2.54,14.38,2.63,6.99-.09,13.79-1.55,14.38-2.63.41-.77,1.21-3.48,1.53-6.01Z" style="fill: url(#_Áåçûìÿííûé_ãðàäèåíò_1017-2); mix-blend-mode: multiply; stroke-width: 0px;"/>
        </g>
      </g>
    </mask>
    <radialGradient id="_Áåçûìÿííûé_ãðàäèåíò_245-2" data-name="Áåçûìÿííûé ãðàäèåíò 245" cx="11.9" cy="27.25" fx="11.9" fy="27.25" r="30.8" xlink:href="#_Áåçûìÿííûé_ãðàäèåíò_245"/>
  </defs>
  <g style="isolation: isolate;">
    <g id="Layer_2" data-name="Layer 2">
      <g id="Layer_1-2" data-name="Layer 1">
        <g>
          <path d="m33.45,12.35c-.04-4.97-1.37-9.82-2.08-10.48-.74-.61-7.55-1.82-14.63-1.86C9.65.04,2.84,1.25,2.1,1.86,1.38,2.53.06,7.38.02,12.35c-.16,4.97,1.01,10.15,1.66,11.5.61,1.14,7.74,2.67,15.06,2.76,7.32-.09,14.44-1.62,15.06-2.76.65-1.35,1.82-6.53,1.66-11.5Z" style="fill: url(#_Áåçûìÿííûé_ãðàäèåíò_1218); stroke-width: 0px;"/>
          <path d="m32.54,4.99c-1.06,1.21-2.2,2.35-3.42,3.42-5.02,4.41-11.28,7.46-18.1,8.92-3.01.65-7.65,1.28-10.79-.03.35,3.08,1.01,5.65,1.44,6.55.61,1.14,7.74,2.67,15.06,2.76,7.32-.09,14.44-1.62,15.06-2.76.65-1.35,1.82-6.53,1.66-11.5-.02-2.71-.43-5.38-.91-7.36Z" style="fill: url(#_Áåçûìÿííûé_ãðàäèåíò_246); mix-blend-mode: multiply; opacity: .22; stroke-width: 0px;"/>
          <path d="m33.45,14.29c-.14,4.29-1.09,8.33-1.66,9.5-.61,1.14-7.74,2.67-15.06,2.76-7.32-.09-14.44-1.62-15.06-2.76C1.11,22.63.16,18.58.02,14.29c0,.04,0,.08,0,.12-.16,4.97,1.01,10.15,1.66,11.5.61,1.14,7.74,2.67,15.06,2.76,7.32-.09,14.44-1.62,15.06-2.76.65-1.35,1.82-6.53,1.66-11.5,0-.04,0-.08,0-.12Z" style="fill: #0037c6; stroke-width: 0px;"/>
          <path d="m31.37,1.86c-.74-.61-7.55-1.82-14.63-1.86C9.65.04,2.84,1.25,2.1,1.86,1.38,2.53.06,7.38.02,12.35c-.12,3.72.5,7.57,1.1,9.83C0,9.55,2.33,3.32,3.05,2.65c.74-.61,7.13-1.57,14.2-2.05,8.96-.61,14.22,1.35,14.12,1.25Z" style="fill: #59d8ff; mix-blend-mode: screen; opacity: .84; stroke-width: 0px;"/>
          <path d="m31.52,21.46c-.08-.27-.26-.48-.58-.54-.27-.05-.65.03-.79.27-.24.39-.53.74-.91,1.02-.21.15-.39.28-.57.46-.01.01-.02.02-.03.03-.11.08-.22.15-.34.23-.43.29-.28.96.22,1.11,1.75.5,3.5-.95,3-2.57Z" style="fill: #59d8ff; stroke-width: 0px;"/>
          <path d="m31.99,18.78c-.09-.13-.26-.22-.43-.14-.31.15-.51.41-.56.72-.05.32.08.76.52.74.11,0,.19-.09.23-.17.01-.02.02-.04.02-.06.35-.25.47-.74.22-1.08Z" style="fill: #59d8ff; stroke-width: 0px;"/>
          <path d="m3.35,2.68c-.09-.14-.21-.23-.37-.23-1.21-.03-2.25,6.37-1.65,7.09.56.68,1.09-1.31,1.28-1.76.49-1.17.93-2.37,1.02-3.63.02-.34-.02-1.09-.28-1.47Z" style="fill: #a6ffff; stroke-width: 0px;"/>
          <g style="mask: url(#mask);">
            <path d="m31.4,4.21c.16-.58-.24-1.41-.69-1.83-.71-.59-7.21-1.74-13.97-1.78-6.77.04-13.27,1.19-13.97,1.78C1.81,3.17-.05,11.67,1.56,13.03c.93.78,2.37.57,3.47.27,4.45-1.25,7.62-5.26,11.51-7.46,4.06-2.29,10.55-4.59,14.86-1.62Z" style="fill: url(#_Áåçûìÿííûé_ãðàäèåíò_245); mix-blend-mode: screen; opacity: .5; stroke-width: 0px;"/>
          </g>
          <g style="mask: url(#mask-2);">
            <path d="m32.64,17.35c.33-2.6.16-5.02-1.41-5.02-1.34,0-3.18,2.11-4.06,2.85-5.72,4.82-11.96,8.88-20.21,8.53-1.94-.08-3.88-.41-5.03-1.97,0,.54.17,1.13.44,1.62.59,1.09,7.39,2.54,14.38,2.63,6.99-.09,13.79-1.55,14.38-2.63.41-.77,1.21-3.48,1.53-6.01Z" style="fill: url(#_Áåçûìÿííûé_ãðàäèåíò_245-2); mix-blend-mode: screen; opacity: .5; stroke-width: 0px;"/>
          </g>
          <g>
            <path d="m9.9,10.58c4.52-.24,9.04-.24,13.56,0,.75.04,1.31-.59,1.19-1.41-.12-.81-.83-1.55-1.53-1.63-4.29-.44-8.58-.44-12.87,0-.71.08-1.42.82-1.53,1.63-.12.81.44,1.44,1.19,1.41Z" style="fill: #0037c6; stroke-width: 0px;"/>
            <path d="m23.57,12.56c-4.59-.1-9.19-.1-13.78,0-.76.02-1.42.71-1.42,1.52h0c0,.81.66,1.5,1.42,1.52,4.59.1,9.19.1,13.78,0,.76-.02,1.42-.71,1.42-1.52h0c0-.81-.66-1.5-1.42-1.52Z" style="fill: #0037c6; stroke-width: 0px;"/>
            <path d="m23.46,17.57c-4.52.24-9.04.24-13.56,0-.75-.04-1.31.59-1.19,1.41.12.81.83,1.55,1.53,1.63,4.29.44,8.58.44,12.87,0,.71-.08,1.42-.82,1.53-1.63.12-.81-.44-1.44-1.19-1.41Z" style="fill: #0037c6; stroke-width: 0px;"/>
          </g>
          <g>
            <path d="m23.46,10.58s.04,0,.06,0c.15-.21.22-.5.17-.81-.1-.71-.73-1.37-1.35-1.44-3.77-.39-7.54-.39-11.31,0-.62.07-1.25.72-1.35,1.44-.05.31.02.6.17.81.02,0,.04,0,.06,0,4.52-.24,9.04-.24,13.56,0Z" style="fill: #000f6f; stroke-width: 0px;"/>
            <path d="m9.9,17.57s-.04,0-.06,0c-.15.22-.22.5-.17.81.1.71.73,1.37,1.35,1.43,3.77.39,7.54.39,11.31,0,.62-.07,1.25-.72,1.35-1.43.05-.31-.02-.6-.17-.81-.02,0-.04,0-.06,0-4.52.24-9.04.24-13.56,0Z" style="fill: #000f6f; stroke-width: 0px;"/>
            <path d="m22.74,12.74c-4.04-.09-8.08-.09-12.12,0-.67.02-1.25.62-1.25,1.33h0c0,.71.58,1.32,1.25,1.33,4.04.09,8.08.09,12.12,0,.67-.02,1.25-.62,1.25-1.33h0c0-.71-.58-1.32-1.25-1.33Z" style="fill: #000f6f; stroke-width: 0px;"/>
          </g>
          <g style="mix-blend-mode: screen; opacity: .84;">
            <path d="m9.9,11.02c4.52-.23,9.04-.23,13.56,0,.75.04,1.31-.59,1.19-1.4,0,0,0,0,0,0-.09.59-.58,1-1.19.98-4.52-.24-9.04-.24-13.56,0-.61.03-1.09-.38-1.19-.98,0,0,0,0,0,0-.12.81.44,1.44,1.19,1.4Z" style="fill: #59d8ff; stroke-width: 0px;"/>
            <path d="m23.11,20.61c-4.29.44-8.58.44-12.87,0-.7-.08-1.41-.82-1.53-1.62-.02.13-.02.28,0,.43.12.81.83,1.55,1.53,1.63,4.29.44,8.58.44,12.87,0,.71-.08,1.42-.82,1.53-1.63.02-.15.02-.29,0-.43-.12.81-.83,1.55-1.53,1.62Z" style="fill: #59d8ff; stroke-width: 0px;"/>
            <path d="m23.57,15.59c-4.59.1-9.19.1-13.78,0-.69-.02-1.3-.59-1.4-1.3-.01.07-.02.14-.02.22h0c0,.81.66,1.5,1.42,1.52,4.59.1,9.19.1,13.78,0,.76-.02,1.42-.71,1.42-1.52h0c0-.07,0-.15-.02-.22-.1.71-.71,1.28-1.4,1.3Z" style="fill: #59d8ff; stroke-width: 0px;"/>
          </g>
        </g>
      </g>
    </g>
  </g>
</svg>